<svg width="40" height="40" viewBox="0 0 24 24" fill="none" xmlns="http://www.w3.org/2000/svg">
  <path d="M7.186 12.3698C7.186 12.7107 7.219 12.9766 7.275 13.1676C7.341 13.3585 7.418 13.5645 7.528 13.7855C7.561 13.8354 7.573 13.8854 7.573 13.9253C7.573 13.9852 7.539 14.0451 7.45 14.1051L6.985 14.3959C6.919 14.4359 6.852 14.4559 6.797 14.4559C6.719 14.4559 6.642 14.4159 6.565 14.336C6.455 14.206 6.366 14.0651 6.289 13.9053C6.211 13.7455 6.134 13.5645 6.056 13.3536C5.469 13.9403 4.759 14.2311 3.927 14.2311C3.318 14.2311 2.832 14.0551 2.478 13.7106C2.124 13.3661 1.947 12.9018 1.947 12.3178C1.947 11.6945 2.169 11.2003 2.621 10.84C3.072 10.4796 3.693 10.2994 4.503 10.2994C4.723 10.2994 4.954 10.3144 5.196 10.3394C5.438 10.3644 5.691 10.4043 5.955 10.4493V10.0549C5.955 9.61541 5.866 9.30954 5.691 9.14169C5.504 8.97384 5.185 8.88592 4.712 8.88592C4.458 8.88592 4.194 8.91591 3.917 8.9809C3.64 9.04588 3.375 9.13081 3.111 9.24072C2.993 9.28571 2.904 9.3057 2.86 9.3207C2.816 9.3357 2.783 9.34069 2.76 9.34069C2.66 9.34069 2.61 9.28071 2.61 9.15081V8.81495C2.61 8.72004 2.627 8.64511 2.66 8.59012C2.694 8.53514 2.749 8.48515 2.838 8.43516C3.102 8.30026 3.42 8.19035 3.795 8.10043C4.17 8.00553 4.568 7.95554 4.987 7.95554C5.756 7.95554 6.312 8.13339 6.653 8.48915C6.983 8.8449 7.153 9.37532 7.153 10.0749V12.3698H7.186ZM4.315 13.3436C4.557 13.3436 4.81 13.2987 5.074 13.2087C5.339 13.1188 5.58 12.9789 5.78 12.7929C5.9 12.678 5.989 12.5481 6.033 12.3982C6.078 12.2483 6.1 12.0674 6.1 11.8465V11.2197C5.91 11.1747 5.702 11.1397 5.482 11.1148C5.262 11.0898 5.052 11.0748 4.843 11.0748C4.401 11.0748 4.071 11.1547 3.84 11.3226C3.609 11.4905 3.498 11.7363 3.498 12.0672C3.498 12.3731 3.576 12.5981 3.74 12.7529C3.895 12.9158 4.072 13.3436 4.315 13.3436ZM10.079 14.336C9.98 14.336 9.913 14.316 9.869 14.276C9.825 14.2361 9.78 14.1611 9.736 14.0611L7.835 8.36052C7.791 8.2556 7.769 8.18563 7.769 8.14064C7.769 8.04073 7.813 7.99075 7.902 7.99075H8.521C8.632 7.99075 8.71 8.01074 8.743 8.05072C8.787 8.0907 8.832 8.16567 8.865 8.27058L10.364 13.3585L11.761 8.27058C11.794 8.16067 11.838 8.0907 11.894 8.05072C11.949 8.01074 12.038 7.99075 12.127 7.99075H12.623C12.733 7.99075 12.811 8.01074 12.855 8.05072C12.9 8.0907 12.944 8.16567 12.977 8.27058L14.386 13.4035L15.929 8.27058C15.963 8.16567 16.007 8.0907 16.051 8.05072C16.095 8.01074 16.173 7.99075 16.273 7.99075H16.87C16.959 7.99075 17.003 8.03573 17.003 8.14064C17.003 8.18563 16.992 8.23061 16.981 8.28059C16.97 8.33058 16.959 8.38056 16.936 8.44553L14.99 14.0761C14.946 14.1811 14.902 14.251 14.858 14.281C14.813 14.3109 14.747 14.331 14.658 14.331H14.129C14.018 14.331 13.94 14.316 13.896 14.276C13.852 14.2361 13.807 14.1611 13.774 14.0561L12.398 9.17167L11.033 14.051C10.989 14.156 10.955 14.2311 10.9 14.271C10.855 14.311 10.767 14.326 10.667 14.326H10.079V14.336ZM20.19 14.3909C19.925 14.3909 19.65 14.356 19.375 14.291C19.099 14.226 18.879 14.1511 18.724 14.0711C18.635 14.0211 18.568 13.9612 18.546 13.9112C18.524 13.8613 18.513 13.8063 18.513 13.7614V13.4155C18.513 13.2856 18.568 13.2207 18.679 13.2207C18.724 13.2207 18.768 13.2307 18.812 13.2506C18.857 13.2706 18.923 13.3006 19 13.3306C19.2 13.4005 19.419 13.4555 19.65 13.4905C19.88 13.5255 20.101 13.5455 20.331 13.5455C20.696 13.5455 20.981 13.4855 21.168 13.3656C21.356 13.2457 21.456 13.0747 21.456 12.8638C21.456 12.7139 21.4 12.584 21.301 12.474C21.2 12.364 20.993 12.264 20.674 12.1741L19.781 11.9432C19.265 11.8032 18.89 11.6034 18.657 11.3475C18.423 11.0917 18.312 10.7958 18.312 10.4599C18.312 10.2001 18.367 9.96523 18.479 9.76538C18.59 9.56553 18.735 9.39069 18.923 9.25079C19.11 9.10589 19.331 9.00098 19.595 8.92605C19.859 8.85112 20.134 8.81613 20.443 8.81613C20.585 8.81613 20.741 8.82612 20.885 8.84611C21.039 8.8661 21.184 8.89609 21.323 8.93107C21.456 8.96606 21.589 9.00598 21.711 9.04597C21.833 9.08595 21.922 9.12094 21.989 9.16092C22.077 9.21091 22.145 9.26089 22.177 9.31587C22.21 9.37086 22.232 9.43583 22.232 9.5208V9.83666C22.232 9.96656 22.177 10.0315 22.067 10.0315C22.011 10.0315 21.934 10.0115 21.833 9.97155C21.522 9.85165 21.168 9.7867 20.797 9.7867C20.465 9.7867 20.201 9.83666 20.024 9.94657C19.847 10.0565 19.758 10.2124 19.758 10.4334C19.758 10.5833 19.815 10.7232 19.936 10.8331C20.057 10.9431 20.289 11.053 20.63 11.1429L21.5 11.3738C22.011 11.5137 22.376 11.7036 22.587 11.9495C22.797 12.1941 22.908 12.4839 22.908 12.8138C22.908 13.0847 22.842 13.3296 22.719 13.5395C22.592 13.7494 22.431 13.9303 22.227 14.0802C22.023 14.2301 21.778 14.341 21.512 14.416C21.223 14.376 20.922 14.3909 20.19 14.3909Z" fill="#252F3E"/>
  <path d="M20.5803 17.7594C18.0573 19.6281 14.3806 20.6245 11.1925 20.6245C6.73259 20.6245 2.76114 19.0085 0 16.2399C-0.227068 16.0349 -0.0116818 15.75 0.271215 15.91C3.22067 17.5949 6.69782 18.689 10.3001 18.689C12.7581 18.689 15.4607 18.17 17.9813 17.0996C18.4238 16.9097 18.8028 17.38 20.5803 17.7594Z" fill="#FF9900"/>
  <path d="M21.7661 16.4029C21.4282 15.9701 19.3986 16.1831 18.4362 16.2829C18.1868 16.3129 18.1404 16.0949 18.3666 15.935C19.9866 14.7747 22.6915 15.0446 22.9773 15.4075C23.2633 15.7704 22.9077 18.2232 21.3924 19.5235C21.1813 19.7016 20.9841 19.6116 21.0997 19.3736C21.4609 18.5584 22.1042 16.835 21.7661 16.4029Z" fill="#FF9900"/>
</svg>