<svg width="40" height="40" viewBox="0 0 24 24" fill="none" xmlns="http://www.w3.org/2000/svg">
  <path d="M7.4001 1.44L3.4001 4.04L7.4001 6.64L3.4001 9.24L7.4001 11.84L11.4001 9.24L7.4001 6.64L11.4001 4.04L7.4001 1.44Z" fill="#0061FF"/>
  <path d="M12.6001 1.44L16.6001 4.04L12.6001 6.64L16.6001 9.24L12.6001 11.84L8.6001 9.24L12.6001 6.64L8.6001 4.04L12.6001 1.44Z" fill="#0061FF"/>
  <path d="M7.4001 12.64L3.4001 15.24L7.4001 17.84L3.4001 20.44L7.4001 23.04L11.4001 20.44L7.4001 17.84L11.4001 15.24L7.4001 12.64Z" fill="#0061FF"/>
  <path d="M12.6001 12.64L16.6001 15.24L12.6001 17.84L16.6001 20.44L12.6001 23.04L8.6001 20.44L12.6001 17.84L8.6001 15.24L12.6001 12.64Z" fill="#0061FF"/>
</svg>