<svg width="40" height="40" viewBox="0 0 24 24" fill="none" xmlns="http://www.w3.org/2000/svg">
  <path d="M10.995 0C9.91 0 8.995 0.301 8.236 0.778C7.525 1.219 6.949 1.777 6.524 2.303C6.03 1.764 5.446 1.219 4.729 0.791C3.956 0.32 3.009 0 1.886 0C1.624 0 1.377 0.096 1.193 0.267C1.009 0.436 0.903 0.666 0.903 0.905C0.903 1.145 1.009 1.373 1.193 1.543C1.377 1.713 1.624 1.809 1.886 1.809C2.656 1.809 3.179 2.021 3.538 2.231C3.908 2.447 4.15 2.678 4.305 2.842C3.731 3.908 3.428 5.267 3.428 6.968C3.428 9.513 4.202 11.266 5.186 12.388C5.19 12.393 5.193 12.398 5.197 12.402V12.407C5.739 13.014 6.323 13.41 6.844 13.677V17.775C6.844 18.32 6.617 18.725 6.343 18.968C6.071 19.209 5.706 19.335 5.318 19.335C4.893 19.335 4.521 19.191 4.268 19.022C4.015 18.853 3.847 18.652 3.741 18.491C3.641 18.335 3.492 18.215 3.317 18.145C3.142 18.075 2.949 18.06 2.764 18.102C2.58 18.144 2.411 18.242 2.285 18.381C2.159 18.52 2.083 18.694 2.064 18.877C2.046 19.061 2.088 19.245 2.183 19.403C2.278 19.56 2.421 19.685 2.591 19.761C2.868 19.925 3.259 20.131 3.729 20.278C4.201 20.426 4.766 20.526 5.318 20.526C6.172 20.526 6.968 20.29 7.578 19.776C8.185 19.264 8.591 18.511 8.591 17.777V13.921C8.944 14.041 9.284 14.118 9.601 14.16C10.068 14.22 10.529 14.22 10.995 14.22C11.462 14.22 11.924 14.22 12.39 14.16C12.707 14.118 13.046 14.041 13.399 13.921V17.775C13.399 18.508 13.806 19.262 14.413 19.774C15.023 20.287 15.818 20.523 16.673 20.523C17.225 20.523 17.79 20.426 18.262 20.278C18.731 20.131 19.122 19.925 19.399 19.761C19.57 19.684 19.713 19.56 19.808 19.402C19.903 19.244 19.945 19.061 19.927 18.877C19.908 18.693 19.831 18.519 19.706 18.381C19.58 18.242 19.411 18.144 19.227 18.102C19.043 18.06 18.849 18.075 18.674 18.145C18.499 18.215 18.35 18.335 18.25 18.491C18.144 18.652 17.976 18.853 17.723 19.022C17.47 19.191 17.098 19.335 16.673 19.335C16.285 19.335 15.919 19.209 15.647 18.968C15.373 18.725 15.147 18.32 15.147 17.775V13.677C15.667 13.41 16.252 13.014 16.793 12.407V12.402C16.797 12.398 16.8 12.393 16.804 12.388C17.789 11.266 18.564 9.515 18.564 6.968C18.564 5.268 18.259 3.906 17.686 2.842C17.841 2.678 18.082 2.447 18.452 2.231C18.812 2.021 19.336 1.809 20.105 1.809C20.367 1.809 20.615 1.713 20.799 1.543C20.983 1.373 21.088 1.145 21.088 0.905C21.088 0.666 20.983 0.436 20.799 0.267C20.615 0.096 20.367 0 20.105 0C18.982 0 18.035 0.32 17.262 0.791C16.545 1.219 15.96 1.764 15.467 2.303C15.042 1.777 14.465 1.219 13.755 0.778C12.994 0.301 12.08 0 10.995 0ZM10.995 1.809C11.532 1.809 12.067 1.967 12.583 2.293C13.099 2.618 13.552 3.087 13.894 3.569C13.592 4.17 13.357 4.898 13.209 5.743C12.943 7.34 12.962 9.183 13.237 10.948C13.338 11.606 13.422 11.873 13.483 11.998C13.473 12.01 13.464 12.02 13.456 12.03C13.229 12.306 12.943 12.514 12.545 12.514C12.386 12.514 12.115 12.464 11.735 12.288C11.293 12.082 10.695 11.653 10.066 10.948C9.153 9.909 8.292 8.247 8.181 5.743C8.034 4.898 7.799 4.17 7.497 3.569C7.839 3.087 8.292 2.618 8.808 2.293C9.324 1.967 9.859 1.809 10.995 1.809ZM6.044 3.962C6.268 4.603 6.422 5.325 6.494 6.107C6.531 6.435 6.555 6.767 6.57 7.096C6.484 7.123 6.399 7.155 6.318 7.193C5.941 7.35 5.671 7.606 5.525 7.803C5.377 8.001 5.318 8.15 5.318 8.23C5.318 8.31 5.377 8.459 5.525 8.658C5.671 8.855 5.941 9.112 6.318 9.269C6.405 9.31 6.499 9.344 6.594 9.374C6.621 9.978 6.714 10.62 6.88 11.238C6.924 11.416 6.969 11.559 7.013 11.685C6.87 11.845 6.718 11.994 6.558 12.132C6.547 12.117 6.535 12.102 6.524 12.087C6.048 11.437 5.667 10.627 5.44 9.533C5.214 8.444 5.129 7.044 5.318 5.164C5.392 4.397 5.598 3.713 5.892 3.101C5.932 3.052 5.97 3.003 6.009 2.957C6.02 2.958 6.033 2.96 6.044 2.962V3.962ZM15.946 3.962V2.962C15.958 2.96 15.971 2.958 15.982 2.957C16.021 3.003 16.059 3.052 16.099 3.101C16.392 3.713 16.599 4.397 16.673 5.164C16.862 7.044 16.777 8.444 16.55 9.533C16.323 10.627 15.943 11.437 15.467 12.087C15.456 12.102 15.444 12.117 15.433 12.132C15.273 11.992 15.118 11.844 14.971 11.685C15.015 11.559 15.059 11.416 15.103 11.238C15.272 10.615 15.367 9.97 15.394 9.359C15.492 9.33 15.587 9.297 15.673 9.256C16.05 9.099 16.32 8.843 16.466 8.645C16.614 8.447 16.673 8.298 16.673 8.218C16.673 8.138 16.614 7.988 16.466 7.791C16.32 7.594 16.05 7.337 15.673 7.18C15.594 7.143 15.511 7.112 15.427 7.085C15.441 6.76 15.465 6.434 15.499 6.107C15.567 5.325 15.722 4.603 15.946 3.962ZM9.87 7.468C10.201 7.468 10.51 7.594 10.735 7.803C10.96 8.013 11.097 8.298 11.097 8.599C11.097 8.901 10.96 9.186 10.735 9.395C10.51 9.604 10.201 9.73 9.87 9.73C9.54 9.73 9.231 9.604 9.006 9.395C8.781 9.186 8.644 8.901 8.644 8.599C8.644 8.298 8.781 8.013 9.006 7.803C9.231 7.594 9.54 7.468 9.87 7.468ZM12.12 7.468C12.45 7.468 12.759 7.594 12.984 7.803C13.209 8.013 13.347 8.298 13.347 8.599C13.347 8.901 13.209 9.186 12.984 9.395C12.759 9.604 12.45 9.73 12.12 9.73C11.789 9.73 11.48 9.604 11.255 9.395C11.03 9.186 10.893 8.901 10.893 8.599C10.893 8.298 11.03 8.013 11.255 7.803C11.48 7.594 11.789 7.468 12.12 7.468ZM6.318 10.69C6.377 10.888 6.44 11.082 6.507 11.273C6.578 11.467 6.654 11.658 6.733 11.845C6.794 11.988 6.93 12.126 7.115 12.244C7.301 12.361 7.558 12.46 7.844 12.46C8.134 12.46 8.391 12.359 8.576 12.239C8.669 12.179 8.746 12.113 8.806 12.048C8.919 12.169 9.036 12.283 9.159 12.39C9.306 12.518 9.487 12.64 9.703 12.742C10.021 12.903 10.427 13.028 10.995 13.028C11.564 13.028 11.969 12.903 12.288 12.742C12.502 12.64 12.686 12.518 12.832 12.39C12.955 12.283 13.072 12.17 13.185 12.048C13.245 12.113 13.322 12.179 13.414 12.239C13.6 12.359 13.857 12.46 14.147 12.46C14.433 12.46 14.69 12.361 14.876 12.244C15.061 12.126 15.197 11.988 15.258 11.845C15.335 11.669 15.427 11.488 15.494 11.301C15.559 11.116 15.619 10.933 15.676 10.746C15.762 10.9 15.843 11.053 15.921 11.205C16.123 11.586 16.271 11.908 16.358 12.167C16.123 12.474 15.814 12.776 15.426 13.042C14.917 13.39 14.255 13.665 13.503 13.816C13.066 13.902 12.567 13.934 12.05 13.947C11.707 13.955 11.353 13.955 10.995 13.955C10.638 13.955 10.284 13.955 9.94 13.947C9.423 13.934 8.925 13.902 8.487 13.816C7.736 13.665 7.074 13.39 6.565 13.042C6.176 12.776 5.868 12.47 5.633 12.16C5.714 11.902 5.856 11.578 6.053 11.197C6.136 11.031 6.223 10.863 6.318 10.69Z" fill="#FFD21E"/>
</svg>