<svg width="40" height="40" viewBox="0 0 24 24" fill="none" xmlns="http://www.w3.org/2000/svg">
  <path d="M22.2819 9.8211C22.5459 9.0292 22.5459 8.1718 22.2819 7.3799C21.5126 5.0694 19.0131 3.8812 16.7026 4.6505C16.1001 3.1802 14.8694 2.1132 13.3162 1.7583C10.9001 1.1587 8.49439 2.7136 7.8953 5.1297C6.18183 5.1936 4.57969 6.2209 3.94747 7.8616C3.01254 10.2378 4.19074 12.9246 6.56695 13.8595C6.30283 14.6514 6.30283 15.5093 6.56695 16.3012C7.33622 18.6117 9.83571 19.7998 12.1463 19.0306C12.7487 20.5009 13.9789 21.5679 15.5321 21.9228C17.9487 22.5224 20.3539 20.9675 20.953 18.5514C22.6665 18.4875 24.2686 17.4602 24.9009 15.8195C25.8358 13.4428 24.6576 10.756 22.2819 9.8211Z" fill="url(#paint0_radial_201_1063)"/>
  <defs>
    <radialGradient id="paint0_radial_201_1063" cx="0" cy="0" r="1" gradientUnits="userSpaceOnUse" gradientTransform="translate(13.9755 11.9995) scale(12.0006 12.0006)">
      <stop stop-color="#0163E0"/>
      <stop offset="1" stop-color="#12B5EA"/>
    </radialGradient>
  </defs>
</svg>