<svg width="40" height="40" viewBox="0 0 24 24" fill="none" xmlns="http://www.w3.org/2000/svg">
  <path d="M22 5.89C21.26 6.21 20.46 6.42 19.64 6.53C20.49 6.03 21.14 5.24 21.45 4.3C20.65 4.77 19.77 5.09 18.84 5.28C18.09 4.49 17.02 4 15.85 4C13.58 4 11.75 5.81 11.75 8.04C11.75 8.36 11.78 8.67 11.84 8.96C8.44 8.79 5.42 7.17 3.39 4.74C3.03 5.34 2.83 6.03 2.83 6.77C2.83 8.18 3.56 9.42 4.66 10.13C3.99 10.12 3.36 9.93 2.79 9.63C2.79 9.65 2.79 9.66 2.79 9.68C2.79 11.64 4.22 13.27 6.09 13.65C5.75 13.74 5.38 13.79 5.01 13.79C4.74 13.79 4.49 13.77 4.24 13.73C4.76 15.33 6.28 16.48 8.07 16.51C6.67 17.59 4.9 18.23 2.98 18.23C2.64 18.23 2.31 18.21 1.98 18.17C3.8 19.31 5.97 20 8.29 20C15.84 20 19.96 13.85 19.96 8.51C19.96 8.33 19.95 8.16 19.94 7.98C20.76 7.41 21.45 6.7 22 5.89Z" fill="#1DA1F2"/>
</svg>